<?xml version="1.0" encoding="UTF-8"?>
<svg version="1.1" xmlns="http://www.w3.org/2000/svg" width="193" height="183">
<path d="M0 0 C1.64574566 -0.02688151 3.29161413 -0.04634123 4.9375 -0.0625 C5.85402344 -0.07410156 6.77054688 -0.08570312 7.71484375 -0.09765625 C10 0 10 0 11 1 C11 2.65 11 4.3 11 6 C28.16 6 45.32 6 63 6 C63.33 4.02 63.66 2.04 64 0 C67.3 0 70.6 0 74 0 C74.99 2.475 74.99 2.475 76 5 C76.90093384 5.03758423 76.90093384 5.03758423 77.82006836 5.07592773 C80.52611437 5.1915528 83.23178283 5.31442936 85.9375 5.4375 C87.35579102 5.49647461 87.35579102 5.49647461 88.80273438 5.55664062 C89.70185547 5.59853516 90.60097656 5.64042969 91.52734375 5.68359375 C92.35999756 5.72025146 93.19265137 5.75690918 94.05053711 5.79467773 C96 6 96 6 97 7 C97.09795069 8.51586112 97.12631815 10.03627553 97.12698364 11.55529785 C97.13121338 13.03187614 97.13121338 13.03187614 97.13552856 14.5382843 C97.13249222 16.17158943 97.13249222 16.17158943 97.12939453 17.83789062 C97.13202301 19.54745186 97.13202301 19.54745186 97.13470459 21.29154968 C97.13912586 25.07979836 97.13618414 28.8680008 97.1328125 32.65625 C97.13348546 35.27559417 97.13445542 37.89493827 97.13571167 40.51428223 C97.1375332 46.01229356 97.13512749 51.51029148 97.13037109 57.00830078 C97.1249285 63.37316987 97.12669117 69.73800692 97.1321975 76.10287523 C97.13727429 82.21484332 97.1367471 88.32679716 97.13381577 94.43876648 C97.13314622 97.04481511 97.13397587 99.65086455 97.13629532 102.25691223 C97.13882022 105.89200033 97.13498353 109.52702596 97.12939453 113.16210938 C97.13141876 114.25097946 97.13344299 115.33984955 97.13552856 116.4617157 C97.13270874 117.44610123 97.12988892 118.43048676 97.12698364 119.44470215 C97.1264181 120.73556858 97.1264181 120.73556858 97.12584114 122.05251312 C97 124 97 124 96 125 C94.4714651 125.09798388 92.93841036 125.12631831 91.40673828 125.12698364 C89.91753876 125.13121338 89.91753876 125.13121338 88.39825439 125.13552856 C87.30003357 125.13350433 86.20181274 125.1314801 85.0703125 125.12939453 C83.92085144 125.13114685 82.77139038 125.13289917 81.58709717 125.13470459 C77.766383 125.1391259 73.94571468 125.13618413 70.125 125.1328125 C67.48323559 125.13348546 64.84147123 125.13445542 62.19970703 125.13571167 C56.65461729 125.13753321 51.10954085 125.13512747 45.56445312 125.13037109 C39.14505256 125.1249285 32.72568375 125.12669117 26.30628395 125.1321975 C20.14199017 125.13727426 13.97771052 125.13674711 7.81341553 125.13381577 C5.1850382 125.13314622 2.55666008 125.13397588 -0.07171631 125.13629532 C-3.73793723 125.13882019 -7.40409622 125.13498357 -11.0703125 125.12939453 C-12.16853333 125.13141876 -13.26675415 125.13344299 -14.39825439 125.13552856 C-15.39105408 125.13270874 -16.38385376 125.12988892 -17.40673828 125.12698364 C-18.27469025 125.12660662 -19.14264221 125.12622959 -20.03689575 125.12584114 C-22 125 -22 125 -23 124 C-23.09795069 122.48413888 -23.12631815 120.96372447 -23.12698364 119.44470215 C-23.12980347 118.46031662 -23.13262329 117.47593109 -23.13552856 116.4617157 C-23.13350433 115.37284561 -23.1314801 114.28397552 -23.12939453 113.16210938 C-23.13114685 112.02240189 -23.13289917 110.8826944 -23.13470459 109.70845032 C-23.13912586 105.92020164 -23.13618414 102.1319992 -23.1328125 98.34375 C-23.13348546 95.72440583 -23.13445542 93.10506173 -23.13571167 90.48571777 C-23.1375332 84.98770644 -23.13512749 79.48970852 -23.13037109 73.99169922 C-23.1249285 67.62683013 -23.12669117 61.26199308 -23.1321975 54.89712477 C-23.13727429 48.78515668 -23.1367471 42.67320284 -23.13381577 36.56123352 C-23.13314622 33.95518489 -23.13397587 31.34913545 -23.13629532 28.74308777 C-23.13882022 25.10799967 -23.13498353 21.47297404 -23.12939453 17.83789062 C-23.13141876 16.74902054 -23.13344299 15.66015045 -23.13552856 14.5382843 C-23.13270874 13.55389877 -23.12988892 12.56951324 -23.12698364 11.55529785 C-23.12660662 10.69472023 -23.12622959 9.83414261 -23.12584114 8.94748688 C-23 7 -23 7 -22 6 C-20.51361008 5.84344973 -19.02050873 5.74933057 -17.52734375 5.68359375 C-16.17866211 5.62075195 -16.17866211 5.62075195 -14.80273438 5.55664062 C-13.85720703 5.51732422 -12.91167969 5.47800781 -11.9375 5.4375 C-10.98810547 5.39431641 -10.03871094 5.35113281 -9.06054688 5.30664062 C-6.70718647 5.20020724 -4.35371646 5.09818992 -2 5 C-1.34 3.35 -0.68 1.7 0 0 Z M-11 18 C-11 20.97 -11 23.94 -11 27 C20.68 27 52.36 27 85 27 C85 24.03 85 21.06 85 18 C81.7 18 78.4 18 75 18 C75 19.65 75 21.3 75 23 C71.37 22.67 67.74 22.34 64 22 C63.505 20.02 63.505 20.02 63 18 C45.84 18 28.68 18 11 18 C11 19.65 11 21.3 11 23 C7.04 23 3.08 23 -1 23 C-1 21.35 -1 19.7 -1 18 C-4.3 18 -7.6 18 -11 18 Z M-11 39 C-11 63.42 -11 87.84 -11 113 C20.68 113 52.36 113 85 113 C85 88.58 85 64.16 85 39 C53.32 39 21.64 39 -11 39 Z " fill="#222426" transform="translate(57,26)"/>
<path d="M0 0 C1.51400391 0.01740234 1.51400391 0.01740234 3.05859375 0.03515625 C4.07050781 0.04417969 5.08242187 0.05320312 6.125 0.0625 C7.29869141 0.07990234 7.29869141 0.07990234 8.49609375 0.09765625 C9.26756134 4.46930593 9.50124051 7.78669349 8.49609375 12.09765625 C6.68367323 12.12452904 4.87114142 12.1439934 3.05859375 12.16015625 C2.04925781 12.17175781 1.03992188 12.18335937 0 12.1953125 C-2.50390625 12.09765625 -2.50390625 12.09765625 -3.50390625 11.09765625 C-3.60214562 9.43336574 -3.63364256 7.76483694 -3.62890625 6.09765625 C-3.63148437 5.19015625 -3.6340625 4.28265625 -3.63671875 3.34765625 C-3.44818505 0.15367356 -3.21403411 0.12535234 0 0 Z " fill="#262829" transform="translate(123.50390625,95.90234375)"/>
<path d="M0 0 C1.51400391 0.01740234 1.51400391 0.01740234 3.05859375 0.03515625 C4.07050781 0.04417969 5.08242187 0.05320312 6.125 0.0625 C7.29869141 0.07990234 7.29869141 0.07990234 8.49609375 0.09765625 C9.83537946 8.13337054 9.83537946 8.13337054 7.49609375 12.09765625 C5.85034809 12.12453776 4.20447962 12.14399748 2.55859375 12.16015625 C1.64207031 12.17175781 0.72554688 12.18335937 -0.21875 12.1953125 C-2.50390625 12.09765625 -2.50390625 12.09765625 -3.50390625 11.09765625 C-3.60214562 9.43336574 -3.63364256 7.76483694 -3.62890625 6.09765625 C-3.63148437 5.19015625 -3.6340625 4.28265625 -3.63671875 3.34765625 C-3.44818505 0.15367356 -3.21403411 0.12535234 0 0 Z " fill="#272A2B" transform="translate(123.50390625,74.90234375)"/>
<path d="M0 0 C1.51400391 0.01740234 1.51400391 0.01740234 3.05859375 0.03515625 C4.07050781 0.04417969 5.08242187 0.05320312 6.125 0.0625 C7.29869141 0.07990234 7.29869141 0.07990234 8.49609375 0.09765625 C8.71876835 1.53300466 8.92371281 2.9711115 9.12109375 4.41015625 C9.23710938 5.21066406 9.353125 6.01117188 9.47265625 6.8359375 C9.49609375 9.09765625 9.49609375 9.09765625 7.49609375 12.09765625 C5.1484375 12.42578125 5.1484375 12.42578125 2.43359375 12.34765625 C1.53511719 12.3321875 0.63664062 12.31671875 -0.2890625 12.30078125 C-2.50390625 12.09765625 -2.50390625 12.09765625 -3.50390625 11.09765625 C-3.60214562 9.43336574 -3.63364256 7.76483694 -3.62890625 6.09765625 C-3.63148437 5.19015625 -3.6340625 4.28265625 -3.63671875 3.34765625 C-3.44818505 0.15367356 -3.21403411 0.12535234 0 0 Z " fill="#27292A" transform="translate(80.50390625,74.90234375)"/>
<path d="M0 0 C3.96 0 7.92 0 12 0 C12.09765625 8.49609375 12.09765625 8.49609375 12 11 C11 12 11 12 8.71484375 12.09765625 C7.34005859 12.08025391 7.34005859 12.08025391 5.9375 12.0625 C5.01839844 12.05347656 4.09929687 12.04445312 3.15234375 12.03515625 C2.44207031 12.02355469 1.73179688 12.01195312 1 12 C-1.22923777 7.67265609 -0.92470553 4.71599818 0 0 Z " fill="#27282A" transform="translate(99,118)"/>
<path d="M0 0 C3.96 0 7.92 0 12 0 C12.09765625 8.49609375 12.09765625 8.49609375 12 11 C11 12 11 12 8.71484375 12.09765625 C7.34005859 12.08025391 7.34005859 12.08025391 5.9375 12.0625 C5.01839844 12.05347656 4.09929687 12.04445313 3.15234375 12.03515625 C2.44207031 12.02355469 1.73179688 12.01195313 1 12 C-1.22923777 7.67265609 -0.92470553 4.71599818 0 0 Z " fill="#292B2C" transform="translate(99,75)"/>
<path d="M0 0 C3.96 0 7.92 0 12 0 C12.09765625 8.49609375 12.09765625 8.49609375 12 11 C11 12 11 12 8.75 12.1328125 C7.8425 12.13023437 6.935 12.12765625 6 12.125 C4.63875 12.12886719 4.63875 12.12886719 3.25 12.1328125 C1 12 1 12 0 11 C-0.14310287 7.3308423 -0.04221662 3.67284559 0 0 Z " fill="#27292B" transform="translate(56,118)"/>
<path d="M0 0 C0.9075 0.00257812 1.815 0.00515625 2.75 0.0078125 C4.11125 0.00394531 4.11125 0.00394531 5.5 0 C7.75 0.1328125 7.75 0.1328125 8.75 1.1328125 C8.89310287 4.8019702 8.79221662 8.45996691 8.75 12.1328125 C4.79 12.1328125 0.83 12.1328125 -3.25 12.1328125 C-3.34765625 3.63671875 -3.34765625 3.63671875 -3.25 1.1328125 C-2.25 0.1328125 -2.25 0.1328125 0 0 Z " fill="#27292B" transform="translate(59.25,95.8671875)"/>
<path d="M0 0 C0.9075 0.00257812 1.815 0.00515625 2.75 0.0078125 C4.11125 0.00394531 4.11125 0.00394531 5.5 0 C7.75 0.1328125 7.75 0.1328125 8.75 1.1328125 C8.89310287 4.8019702 8.79221662 8.45996691 8.75 12.1328125 C4.79 12.1328125 0.83 12.1328125 -3.25 12.1328125 C-3.34765625 3.63671875 -3.34765625 3.63671875 -3.25 1.1328125 C-2.25 0.1328125 -2.25 0.1328125 0 0 Z " fill="#26282A" transform="translate(102.25,95.8671875)"/>
<path d="M0 0 C2.83203125 0.03255208 5.6640625 0.06510417 8.49609375 0.09765625 C8.49609375 4.05765625 8.49609375 8.01765625 8.49609375 12.09765625 C-0 12.1953125 -0 12.1953125 -2.50390625 12.09765625 C-3.50390625 11.09765625 -3.50390625 11.09765625 -3.63671875 8.84765625 C-3.63414063 7.94015625 -3.6315625 7.03265625 -3.62890625 6.09765625 C-3.63148437 5.19015625 -3.6340625 4.28265625 -3.63671875 3.34765625 C-3.44818505 0.15367356 -3.21403411 0.12535234 0 0 Z " fill="#27282A" transform="translate(80.50390625,95.90234375)"/>
<path d="M0 0 C1.51400391 0.01740234 1.51400391 0.01740234 3.05859375 0.03515625 C4.07050781 0.04417969 5.08242187 0.05320312 6.125 0.0625 C7.29869141 0.07990234 7.29869141 0.07990234 8.49609375 0.09765625 C8.52296654 1.91007677 8.5424309 3.72260858 8.55859375 5.53515625 C8.57019531 6.54449219 8.58179687 7.55382812 8.59375 8.59375 C8.49609375 11.09765625 8.49609375 11.09765625 7.49609375 12.09765625 C5.83180324 12.19589562 4.16327444 12.22739256 2.49609375 12.22265625 C1.13484375 12.22652344 1.13484375 12.22652344 -0.25390625 12.23046875 C-2.50390625 12.09765625 -2.50390625 12.09765625 -3.50390625 11.09765625 C-3.60214562 9.43336574 -3.63364256 7.76483694 -3.62890625 6.09765625 C-3.63148437 5.19015625 -3.6340625 4.28265625 -3.63671875 3.34765625 C-3.44818505 0.15367356 -3.21403411 0.12535234 0 0 Z " fill="#26282A" transform="translate(80.50390625,117.90234375)"/>
</svg>
