<?xml version="1.0" encoding="UTF-8"?>
<svg version="1.1" xmlns="http://www.w3.org/2000/svg" width="185" height="173">
<path d="M0 0 C0.60356363 4.14447029 0.84863379 7.87882213 0 12 C-2.2007237 14.13195109 -4.38183454 15.19082046 -7.1328125 16.52734375 C-19.21402188 22.73254257 -25.90621158 34.50869686 -30 47 C-33.49784241 60.68822328 -31.05353464 75.25006438 -24.125 87.375 C-15.81870469 100.16504178 -4.1272258 108.69948223 11 112 C28.11494018 113.52081525 42.2524789 110.28133634 55.99609375 99.69140625 C65.247449 91.83781171 71.09997934 79.8533399 73 68 C74.14768954 50.99161724 70.21437111 37.51335215 59.25 24.25 C55.08932592 19.72055711 50.36410331 16.90595295 45 14 C44.01 13.34 43.02 12.68 42 12 C41.70703125 9.1796875 41.70703125 9.1796875 41.8125 5.875 C41.85310547 4.23144531 41.85310547 4.23144531 41.89453125 2.5546875 C41.92933594 1.71164063 41.96414062 0.86859375 42 0 C55.35444829 2.10985898 66.17652415 12.80951214 74.11328125 23.12890625 C84.31526394 38.65366252 87.93432157 56.75437205 84.3125 75.08984375 C79.67702007 92.56946599 68.7012848 107.50862558 53.0859375 116.71875 C36.53965241 125.44082276 18.68606722 127.05776886 0.62109375 122.06640625 C-16.60740394 116.07478672 -29.53966232 104.0041748 -38 88 C-44.47242138 72.57258464 -45.68998247 53.97078773 -40.2578125 38.03515625 C-33.13971546 20.85887862 -21.80882149 8.94617403 -5.05859375 0.77734375 C-3 0 -3 0 0 0 Z " fill="#191B1D" transform="translate(68,29)"/>
<path d="M0 0 C0.9075 0.00257812 1.815 0.00515625 2.75 0.0078125 C4.11125 0.00394531 4.11125 0.00394531 5.5 0 C7.75 0.1328125 7.75 0.1328125 8.75 1.1328125 C8.84925773 3.09105948 8.87799414 5.05291147 8.87939453 7.01367188 C8.88254669 8.27167603 8.88569885 9.52968018 8.88894653 10.82580566 C8.88715675 12.20939163 8.8851058 13.59297728 8.8828125 14.9765625 C8.88348559 16.38521339 8.88445565 17.79386416 8.88571167 19.20251465 C8.88718842 22.15829573 8.88503483 25.11404664 8.88037109 28.06982422 C8.87467381 31.86655834 8.87795293 35.66322178 8.88394356 39.45995331 C8.88754979 42.36977678 8.8864103 45.27958338 8.88381577 48.18940735 C8.88314667 49.5897065 8.88397432 50.99000717 8.88629532 52.39030457 C8.88882283 54.34418714 8.88429033 56.29807505 8.87939453 58.25195312 C8.87859894 59.36590454 8.87780334 60.47985596 8.87698364 61.62756348 C8.75 64.1328125 8.75 64.1328125 7.75 65.1328125 C6.08570949 65.23105187 4.41718069 65.26254881 2.75 65.2578125 C1.38875 65.26167969 1.38875 65.26167969 0 65.265625 C-2.25 65.1328125 -2.25 65.1328125 -3.25 64.1328125 C-3.34925773 62.17456552 -3.37799414 60.21271353 -3.37939453 58.25195312 C-3.38254669 56.99394897 -3.38569885 55.73594482 -3.38894653 54.43981934 C-3.38715675 53.05623337 -3.3851058 51.67264772 -3.3828125 50.2890625 C-3.38348559 48.88041161 -3.38445565 47.47176084 -3.38571167 46.06311035 C-3.38718842 43.10732927 -3.38503483 40.15157836 -3.38037109 37.19580078 C-3.37467381 33.39906666 -3.37795293 29.60240322 -3.38394356 25.80567169 C-3.38754979 22.89584822 -3.3864103 19.98604162 -3.38381577 17.07621765 C-3.38314667 15.6759185 -3.38397432 14.27561783 -3.38629532 12.87532043 C-3.38882283 10.92143786 -3.38429033 8.96754995 -3.37939453 7.01367188 C-3.37859894 5.89972046 -3.37780334 4.78576904 -3.37698364 3.63806152 C-3.2142232 0.42697513 -3.19365208 0.18851419 0 0 Z " fill="#181A1D" transform="translate(86.25,24.8671875)"/>
</svg>
