<?xml version="1.0" standalone="no"?>
<!DOCTYPE svg PUBLIC "-//W3C//DTD SVG 20010904//EN"
 "http://www.w3.org/TR/2001/REC-SVG-20010904/DTD/svg10.dtd">
<svg version="1.0" xmlns="http://www.w3.org/2000/svg"
 width="194.000000pt" height="185.000000pt" viewBox="0 0 194.000000 185.000000"
 preserveAspectRatio="xMidYMid meet">

<g transform="translate(0.000000,185.000000) scale(0.100000,-0.100000)"
fill="#000000" stroke="none">
<path d="M470 1005 l0 -635 530 0 530 0 0 635 0 635 -530 0 -530 0 0 -635z
m950 400 l0 -135 -425 0 -425 0 0 135 0 135 425 0 425 0 0 -135z m0 -395 l0
-160 -425 0 -425 0 0 160 0 160 425 0 425 0 0 -160z m0 -400 l0 -130 -425 0
-425 0 0 130 0 130 425 0 425 0 0 -130z"/>
</g>
</svg>
