<?xml version="1.0" standalone="no"?>
<!DOCTYPE svg PUBLIC "-//W3C//DTD SVG 20010904//EN"
 "http://www.w3.org/TR/2001/REC-SVG-20010904/DTD/svg10.dtd">
<svg version="1.0" xmlns="http://www.w3.org/2000/svg"
 width="276.000000pt" height="181.000000pt" viewBox="0 0 276.000000 181.000000"
 preserveAspectRatio="xMidYMid meet">

<g transform="translate(0.000000,181.000000) scale(0.100000,-0.100000)"
fill="#000000" stroke="none">
<path d="M560 1135 l0 -425 105 0 105 0 0 -135 c0 -74 3 -135 6 -135 3 0 29
20 57 44 29 24 104 85 167 135 l115 91 253 0 252 0 0 425 0 425 -530 0 -530 0
0 -425z m960 -5 l0 -320 -223 0 -224 0 -94 -74 -94 -74 -3 74 -3 74 -109 0
-110 0 0 320 0 320 430 0 430 0 0 -320z"/>
<path d="M1730 1290 l0 -50 110 0 110 0 0 -320 0 -320 -110 0 -109 0 -3 -76
-3 -76 -95 76 -95 76 -196 0 -196 0 -66 -52 -67 -53 247 -3 248 -3 165 -133
165 -133 3 133 3 134 104 0 105 0 0 425 0 425 -160 0 -160 0 0 -50z"/>
</g>
</svg>
