<?xml version="1.0" encoding="UTF-8"?>
<svg version="1.1" xmlns="http://www.w3.org/2000/svg" width="215" height="174">
<path d="M0 0 C14.67637326 11.87197072 26.24079238 26.32084858 28.40234375 45.5859375 C30.06257627 63.58635324 26.43671552 80.37630843 14.859375 94.63671875 C3.557801 107.49514223 -9.48279492 116.88471486 -27 119 C-47.78625043 120.30370361 -65.42360826 115.66858075 -81.3125 101.66015625 C-93.19936253 89.89423564 -100.14520227 74.76187835 -100.38012695 58.06665039 C-100.36373051 47.65959209 -100.32810724 38.62753887 -96 29 C-95.66097656 28.15179688 -95.32195312 27.30359375 -94.97265625 26.4296875 C-88.04335044 10.69695758 -74.53750776 0.09187849 -59.203125 -6.80859375 C-40.14548832 -13.89710495 -16.78337338 -11.63037208 0 0 Z M-69 12 C-70.051875 12.7425 -71.10375 13.485 -72.1875 14.25 C-82.74175967 24.56972057 -89.12721671 36.7697617 -89.38061523 51.56103516 C-89.34592955 68.17095174 -85.3361685 80.50524953 -73.6875 92.8125 C-62.47709247 103.43488277 -48.5929661 108.40043894 -33.28125 108.2109375 C-16.87071825 107.15597474 -4.9805064 99.66323496 6.00390625 87.84375 C16.87442377 74.88365136 18.15204884 60.20716114 17 44 C16.19737213 39.65663664 14.93245501 35.96183566 13 32 C12.59910156 31.15695313 12.19820313 30.31390625 11.78515625 29.4453125 C5.17756285 17.14944304 -5.88196967 7.89907522 -18.828125 2.91015625 C-36.74255998 -2.40054374 -54.00481784 1.15083675 -69 12 Z " fill="#1B1D2D" transform="translate(140,33)"/>
<path d="M0 0 C1.17825358 0.90172468 2.34231577 1.82201502 3.5 2.75 C4.47453125 3.51570313 4.47453125 3.51570313 5.46875 4.296875 C7 6 7 6 7 10 C5.10400391 12.23901367 5.10400391 12.23901367 2.4765625 14.66796875 C1.538125 15.56193359 0.5996875 16.45589844 -0.3671875 17.37695312 C-1.86412424 18.78124796 -3.36608602 20.17930326 -4.87695312 21.56860352 C-12.66054917 28.51645722 -12.66054917 28.51645722 -15.6796875 38.11230469 C-16.08547073 40.50370401 -16.86950802 41.41385406 -18.625 43.0625 C-22.69426455 45.39855928 -25.42700916 46.1000634 -30 45 C-33.42215793 43.07114735 -35.46291808 41.66857474 -36.6953125 37.83984375 C-37.2723887 34.16251778 -37.23570647 31.63779399 -35.9375 28.125 C-32.86700423 24.75735947 -29.4287714 23.41014597 -25.1015625 22.16796875 C-16.80521217 19.04377637 -10.56507379 10.62446852 -4.91015625 4.06640625 C-3 2 -3 2 0 0 Z " fill="#1B1D2D" transform="translate(130,53)"/>
<path d="M0 0 C3.125 0.3125 3.125 0.3125 5.0625 2 C6.40733625 4.92699654 6.15615662 6.29834989 5.125 9.3125 C3.125 11.3125 3.125 11.3125 0.1875 11.75 C-2.875 11.3125 -2.875 11.3125 -4.875 9.125 C-5.875 6.3125 -5.875 6.3125 -5.125 3.5625 C-3.34800771 0.36391388 -3.34800771 0.36391388 0 0 Z " fill="#181928" transform="translate(103.875,38.6875)"/>
<path d="M0 0 C3.0625 0.4375 3.0625 0.4375 5.0625 2.625 C6.0625 5.4375 6.0625 5.4375 5.25 8.25 C4.858125 8.971875 4.46625 9.69375 4.0625 10.4375 C1.7525 10.7675 -0.5575 11.0975 -2.9375 11.4375 C-4.5 9.75 -4.5 9.75 -5.9375 7.4375 C-5.61572659 2.93267219 -4.72005079 0.70298629 0 0 Z " fill="#161827" transform="translate(146.9375,81.5625)"/>
<path d="M0 0 C3.5625 0.25 3.5625 0.25 7 1 C8.38125018 3.76250036 8.19079306 5.94731099 8 9 C6 11 6 11 3.0625 11.375 C0 11 0 11 -1.9375 9.3125 C-3.28233625 6.38550346 -3.03115662 5.01415011 -2 2 C-1.34 1.34 -0.68 0.68 0 0 Z " fill="#181929" transform="translate(71,112)"/>
<path d="M0 0 C3.0625 0.375 3.0625 0.375 5 2.0625 C6.35219442 5.00551139 6.17318406 6.36028613 5.0625 9.375 C2.0625 11.375 2.0625 11.375 -1.0625 11.0625 C-3.9375 10.375 -3.9375 10.375 -4.9375 9.375 C-5.125 5.9375 -5.125 5.9375 -4.9375 2.375 C-2.9375 0.375 -2.9375 0.375 0 0 Z " fill="#171828" transform="translate(60.9375,81.625)"/>
<path d="M0 0 C2 2 2 2 2.375 4.9375 C2 8 2 8 0.3125 9.9375 C-2.63051139 11.28969442 -3.98528613 11.11068406 -7 10 C-9 7 -9 7 -8.75 3.875 C-8.37875 2.451875 -8.37875 2.451875 -8 1 C-5.23749964 -0.38125018 -3.05268901 -0.19079306 0 0 Z " fill="#181929" transform="translate(77,52)"/>
<path d="M0 0 C1.875 1.6875 1.875 1.6875 3 4 C2.75925978 7.37036311 2.41201979 8.58798021 0 11 C-6.57692308 10.42307692 -6.57692308 10.42307692 -8 9 C-8.45875252 3.72434608 -8.45875252 3.72434608 -6.8125 1.125 C-4.31963619 -0.42229478 -2.88032665 -0.50405716 0 0 Z " fill="#171928" transform="translate(137,112)"/>
<path d="M0 0 C0 3 0 3 -2.625 5.91796875 C-3.74249406 7.01550756 -4.86785643 8.10507895 -6 9.1875 C-6.57234375 9.74630859 -7.1446875 10.30511719 -7.734375 10.88085938 C-9.14962788 12.26073093 -10.57397155 13.63126734 -12 15 C-12 10.39852874 -9.10228152 8.19311408 -6 5 C-4.05341967 3.24193983 -2.06456557 1.62215867 0 0 Z " fill="#151727" transform="translate(65,35)"/>
</svg>
