<?xml version="1.0" standalone="no"?>
<!DOCTYPE svg PUBLIC "-//W3C//DTD SVG 20010904//EN"
 "http://www.w3.org/TR/2001/REC-SVG-20010904/DTD/svg10.dtd">
<svg version="1.0" xmlns="http://www.w3.org/2000/svg"
 width="194.000000pt" height="181.000000pt" viewBox="0 0 194.000000 181.000000"
 preserveAspectRatio="xMidYMid meet">

<g transform="translate(0.000000,181.000000) scale(0.100000,-0.100000)"
fill="#000000" stroke="none">
<path d="M427 1503 c-4 -3 -7 -269 -7 -590 l0 -583 590 0 590 0 -2 588 -3 587
-581 3 c-319 1 -584 -1 -587 -5z m531 -315 l-3 -213 -212 -3 -213 -2 0 215 0
215 215 0 215 0 -2 -212z m532 -3 l0 -215 -215 0 -215 0 0 215 0 215 215 0
215 0 0 -215z m-532 -532 l2 -213 -215 0 -215 0 0 215 0 215 213 -2 212 -3 3
-212z m532 2 l0 -215 -215 0 -215 0 0 215 0 215 215 0 215 0 0 -215z"/>
</g>
</svg>
