<?xml version="1.0" encoding="UTF-8"?>
<svg version="1.1" xmlns="http://www.w3.org/2000/svg" width="183" height="179">
<path d="M0 0 C8.78786068 7.10130156 13.92008206 15.02046335 15.8125 26.25 C16.89101162 37.24252227 13.43632354 47.50472146 6.8125 56.25 C4.58305181 58.4928786 2.339503 60.32947772 -0.1875 62.25 C0.42996094 62.5903125 1.04742187 62.930625 1.68359375 63.28125 C15.16292961 70.99545134 26.17958505 82.04870313 30.39453125 97.4375 C30.53246094 98.035625 30.67039062 98.63375 30.8125 99.25 C31.039375 100.095625 31.26625 100.94125 31.5 101.8125 C31.94832486 105.30943394 31.87224047 108.72531224 31.8125 112.25 C28.1825 112.25 24.5525 112.25 20.8125 112.25 C20.59335938 111.21101563 20.37421875 110.17203125 20.1484375 109.1015625 C18.24052739 100.53755436 16.02358604 93.4653499 10.8125 86.25 C9.94625 84.9196875 9.94625 84.9196875 9.0625 83.5625 C0.29645747 74.55295629 -10.18850304 70.14578029 -22.6875 69.75 C-35.57222065 70.17072557 -46.13540838 74.81671424 -55.06640625 84.23046875 C-61.02381673 91.71082627 -63.52379757 99.44951101 -64.79296875 108.84375 C-65.1875 111.25 -65.1875 111.25 -66.1875 112.25 C-68.04037502 112.32226502 -69.89583878 112.3338122 -71.75 112.3125 C-73.26787109 112.29896484 -73.26787109 112.29896484 -74.81640625 112.28515625 C-75.59886719 112.27355469 -76.38132813 112.26195312 -77.1875 112.25 C-76.71361269 98.88637796 -73.48574813 88.77460738 -65.1875 78.25 C-64.76082031 77.63640625 -64.33414063 77.0228125 -63.89453125 76.390625 C-59.14285474 70.01606821 -51.88353314 66.29513783 -45.1875 62.25 C-46.21875 61.46625 -47.25 60.6825 -48.3125 59.875 C-55.30969959 53.88551069 -59.90755071 45.19450096 -60.62890625 36 C-61.14285489 22.95803922 -58.9168043 13.25116217 -49.9375 3.25 C-35.759689 -9.41679713 -15.50962706 -10.79186978 0 0 Z M-44.1875 14.25 C-49.6229789 21.62014088 -50.44964441 29.30211446 -49.1875 38.25 C-46.60484245 46.71474544 -41.55165778 51.71878849 -34.0625 56.0625 C-26.77548365 59.07235458 -19.82572089 58.98408005 -12.45703125 56.28515625 C-5.46876504 53.09773707 -0.23636318 48.35176965 2.8125 41.25 C5.28071629 33.26667842 5.43789402 26.40641113 1.6171875 18.90234375 C-2.33294473 12.43750986 -7.21820816 8.19054268 -14 4.875 C-26.17393067 2.48795477 -35.86833502 4.88428761 -44.1875 14.25 Z " fill="#1A1C1E" transform="translate(114.1875,34.75)"/>
<path d="M0 0 C0.66 0 1.32 0 2 0 C0.52278578 3.45201639 -1.43794001 5.64961936 -4.125 8.25 C-4.84945312 8.95640625 -5.57390625 9.6628125 -6.3203125 10.390625 C-6.87460937 10.92171875 -7.42890625 11.4528125 -8 12 C-8 8.24111186 -7.049166 7.58681685 -4.5625 4.875 C-3.92441406 4.17117187 -3.28632812 3.46734375 -2.62890625 2.7421875 C-1.76410115 1.81724008 -0.89538137 0.89538137 0 0 Z " fill="#131415" transform="translate(68,35)"/>
</svg>
