<?xml version="1.0" encoding="UTF-8"?>
<svg version="1.1" xmlns="http://www.w3.org/2000/svg" width="198" height="191">
<path d="M0 0 C14.19 0 28.38 0 43 0 C44.65821263 1.65821263 44.12605572 3.61560995 44.12698364 5.89697266 C44.12980347 6.95708557 44.13262329 8.01719849 44.13552856 9.10943604 C44.13350433 10.28246277 44.1314801 11.4554895 44.12939453 12.6640625 C44.13114685 13.89155212 44.13289917 15.11904175 44.13470459 16.38372803 C44.13836283 19.75968279 44.13748964 23.13557661 44.1343255 26.51152802 C44.13180157 30.03714584 44.13413954 33.56276098 44.13571167 37.08837891 C44.13753327 43.01009593 44.13512732 48.93180049 44.13037109 54.85351562 C44.12492849 61.7091681 44.12669115 68.56479083 44.1321975 75.42044258 C44.13672891 81.29644081 44.13737904 87.17243007 44.13475883 93.04842949 C44.13319621 96.56234093 44.13300188 100.07623837 44.13629532 103.59014893 C44.13970832 107.50542363 44.13498383 111.42066477 44.12939453 115.3359375 C44.13141876 116.50896423 44.13344299 117.68199097 44.13552856 118.89056396 C44.13270874 119.95067688 44.12988892 121.01078979 44.12698364 122.10302734 C44.12660662 123.02997406 44.12622959 123.95692078 44.12584114 124.91195679 C44 127 44 127 43 128 C28.81 128 14.62 128 0 128 C0 85.76 0 43.52 0 0 Z M12 11 C12 45.98 12 80.96 12 117 C18.6 117 25.2 117 32 117 C32 82.02 32 47.04 32 11 C25.4 11 18.8 11 12 11 Z " fill="#202224" transform="translate(121,33)"/>
<path d="M0 0 C14.19 0 28.38 0 43 0 C43 31.68 43 63.36 43 96 C28.81 96 14.62 96 0 96 C0 64.32 0 32.64 0 0 Z M11 11 C11 35.42 11 59.84 11 85 C17.93 85 24.86 85 32 85 C32 60.58 32 36.16 32 11 C25.07 11 18.14 11 11 11 Z " fill="#252729" transform="translate(26,65)"/>
<path d="M0 0 C0.76166977 0.00222061 1.52333954 0.00444122 2.30809021 0.00672913 C3.18098694 0.00684998 4.05388367 0.00697083 4.95323181 0.00709534 C6.33822876 0.01476929 6.33822876 0.01476929 7.75120544 0.02259827 C8.5955011 0.02360535 9.43979675 0.02461243 10.30967712 0.02565002 C13.47639821 0.03089881 16.64310001 0.04485995 19.80979919 0.05775452 C26.88417419 0.07837952 33.95854919 0.09900452 41.24729919 0.12025452 C41.24729919 21.24025452 41.24729919 42.36025452 41.24729919 64.12025452 C30.63573669 64.15119202 30.63573669 64.15119202 19.80979919 64.18275452 C16.45610168 64.19641052 16.45610168 64.19641052 13.03465271 64.21034241 C11.27350423 64.21326148 9.51235509 64.21581006 7.75120544 64.21791077 C6.82787415 64.22302673 5.90454285 64.2281427 4.95323181 64.2334137 C4.08033508 64.23353455 3.20743835 64.2336554 2.30809021 64.23377991 C1.54642044 64.23600052 0.78475067 64.23822113 0 64.24050903 C-1.75270081 64.12025452 -1.75270081 64.12025452 -2.75270081 63.12025452 C-2.85190943 61.19263634 -2.88069445 59.26136098 -2.88209534 57.33119202 C-2.8852475 56.09320862 -2.88839966 54.85522522 -2.89164734 53.57972717 C-2.88985756 52.21823593 -2.8878066 50.85674501 -2.88551331 49.49525452 C-2.8861864 48.10902387 -2.88715647 46.72279335 -2.88841248 45.33656311 C-2.8898892 42.4278603 -2.8877357 39.51918815 -2.8830719 36.61048889 C-2.87737461 32.87428853 -2.88065375 29.13816 -2.88664436 25.40196228 C-2.89025066 22.53846186 -2.88911108 19.67497859 -2.88651657 16.81147766 C-2.88584749 15.4335072 -2.88667507 14.0555352 -2.88899612 12.67756653 C-2.89152372 10.75481698 -2.88699104 8.832062 -2.88209534 6.90931702 C-2.88129974 5.81313049 -2.88050415 4.71694397 -2.87968445 3.58753967 C-2.70459518 0.18556492 -2.70459518 0.18556492 0 0 Z M9.24729919 11.12025452 C9.24729919 24.98025452 9.24729919 38.84025452 9.24729919 53.12025452 C15.84729919 53.12025452 22.44729919 53.12025452 29.24729919 53.12025452 C29.24729919 39.26025452 29.24729919 25.40025452 29.24729919 11.12025452 C22.64729919 11.12025452 16.04729919 11.12025452 9.24729919 11.12025452 Z " fill="#202224" transform="translate(75.75270080566406,96.87974548339844)"/>
</svg>
