<?xml version="1.0" standalone="no"?>
<!DOCTYPE svg PUBLIC "-//W3C//DTD SVG 20010904//EN"
 "http://www.w3.org/TR/2001/REC-SVG-20010904/DTD/svg10.dtd">
<svg version="1.0" xmlns="http://www.w3.org/2000/svg"
 width="242.000000pt" height="186.000000pt" viewBox="0 0 242.000000 186.000000"
 preserveAspectRatio="xMidYMid meet">

<g transform="translate(0.000000,186.000000) scale(0.100000,-0.100000)"
fill="#000000" stroke="none">
<path d="M764 1600 c-73 -15 -138 -52 -205 -119 -86 -86 -113 -150 -113 -271
-1 -143 3 -149 399 -550 187 -190 345 -346 351 -348 6 -2 166 156 356 350 253
260 351 366 369 403 21 43 24 64 24 150 0 89 -3 106 -28 157 -57 117 -176 207
-304 229 -120 21 -267 -23 -365 -110 l-46 -41 -64 48 c-123 93 -248 127 -374
102z m231 -140 c47 -22 106 -62 142 -95 l63 -56 56 54 c101 100 243 156 342
137 74 -14 123 -42 175 -100 79 -88 97 -191 51 -290 -21 -45 -80 -110 -322
-352 -163 -164 -301 -298 -307 -298 -6 0 -144 134 -306 298 -328 330 -344 352
-343 457 1 169 155 306 324 288 25 -2 81 -22 125 -43z"/>
</g>
</svg>
