<?xml version="1.0" standalone="no"?>
<!DOCTYPE svg PUBLIC "-//W3C//DTD SVG 20010904//EN"
 "http://www.w3.org/TR/2001/REC-SVG-20010904/DTD/svg10.dtd">
<svg version="1.0" xmlns="http://www.w3.org/2000/svg"
 width="177.000000pt" height="192.000000pt" viewBox="0 0 177.000000 192.000000"
 preserveAspectRatio="xMidYMid meet">

<g transform="translate(0.000000,192.000000) scale(0.100000,-0.100000)"
fill="#000000" stroke="none">
<path d="M796 1699 c-19 -16 -38 -39 -41 -50 -6 -18 -17 -19 -201 -19 l-194 0
0 -600 0 -600 520 0 520 0 0 600 0 600 -194 0 c-184 0 -195 1 -201 19 -3 11
-22 34 -41 50 -29 26 -43 31 -84 31 -41 0 -55 -5 -84 -31z m115 -79 c14 -8 19
-21 19 -50 l0 -40 80 0 80 0 0 -55 0 -55 -210 0 -210 0 0 55 0 55 80 0 80 0 0
38 c0 57 32 78 81 52z m-343 -197 l3 -103 309 0 309 0 3 103 3 102 50 0 50 0
3 -497 2 -498 -420 0 -420 0 0 493 c0 272 3 497 7 501 4 4 28 6 53 4 l45 -3 3
-102z"/>
</g>
</svg>
