<?xml version="1.0" encoding="UTF-8"?>
<svg version="1.1" xmlns="http://www.w3.org/2000/svg" width="200" height="198">
<path d="M0 0 C3.90820293 1.91723163 5.596364 3.21679804 7.59667969 7.09814453 C9.60888477 10.07518149 9.60888477 10.07518149 11.89978027 10.56585693 C14.32994001 10.79192295 16.70003612 10.83066713 19.140625 10.8046875 C20.46389801 10.82524704 20.46389801 10.82524704 21.81390381 10.84622192 C24.62645295 10.88355775 27.43723799 10.87980485 30.25 10.875 C32.15888181 10.89312434 34.06774021 10.91392621 35.9765625 10.9375 C40.65133775 10.98938436 45.32495259 11.00442833 50 11 C50.02332909 27.1503192 50.04097922 43.30063296 50.05181217 59.45096493 C50.05697511 66.94933064 50.06401776 74.44768591 50.07543945 81.94604492 C50.08538637 88.47930504 50.09185344 95.01255759 50.09408849 101.54582506 C50.09539559 105.00721807 50.09848136 108.46858942 50.10573006 111.92997551 C50.11374407 115.78787527 50.11399113 119.64575357 50.11352539 123.50366211 C50.11712067 124.65955841 50.12071594 125.81545471 50.12442017 127.00637817 C50.1230455 128.05110794 50.12167084 129.09583771 50.12025452 130.17222595 C50.12117631 131.0857228 50.1220981 131.99921965 50.12304783 132.94039822 C50 135 50 135 49 136 C47.59588683 136.0954693 46.18700191 136.12188529 44.77964783 136.12025452 C43.87144507 136.12163201 42.96324232 136.12300951 42.02751827 136.12442875 C41.01933324 136.12083064 40.0111482 136.11723253 38.97241211 136.11352539 C37.90177552 136.11364593 36.83113894 136.11376646 35.72805882 136.11389065 C32.24446637 136.11314115 28.76092669 136.10551126 25.27734375 136.09765625 C23.13383001 136.09618694 20.99031592 136.09516616 18.84680176 136.09460449 C10.87702905 136.08935029 2.90726401 136.07538923 -5.0625 136.0625 C-22.861875 136.041875 -40.66125 136.02125 -59 136 C-59 94.75 -59 53.5 -59 11 C-45.8 10.67 -32.6 10.34 -19 10 C-17.68 8.02 -16.36 6.04 -15 4 C-10.27299866 -0.17735002 -6.09448069 -1.07227847 0 0 Z M-8.8125 14.125 C-10.38176015 17.40582946 -10.38176015 17.40582946 -10 23 C-15.28 23 -20.56 23 -26 23 C-26 25.97 -26 28.94 -26 32 C-12.14 32 1.72 32 16 32 C16 29.03 16 26.06 16 23 C11.05 22.67 6.1 22.34 1 22 C0.8046875 19.98177083 0.609375 17.96354167 0.4140625 15.9453125 C0.13625251 13.77331755 0.13625251 13.77331755 -2 12 C-5.45570182 11.37974583 -6.48949128 11.40147253 -8.8125 14.125 Z M-47 23 C-47 56.33 -47 89.66 -47 124 C-18.95 124 9.1 124 38 124 C38 90.67 38 57.34 38 23 C34.7 23 31.4 23 28 23 C28 29.93 28 36.86 28 44 C6.55 44 -14.9 44 -37 44 C-37 37.07 -37 30.14 -37 23 C-40.3 23 -43.6 23 -47 23 Z " fill="#1D1F21" transform="translate(104,26)"/>
</svg>
