<?xml version="1.0" standalone="no"?>
<!DOCTYPE svg PUBLIC "-//W3C//DTD SVG 20010904//EN"
 "http://www.w3.org/TR/2001/REC-SVG-20010904/DTD/svg10.dtd">
<svg version="1.0" xmlns="http://www.w3.org/2000/svg"
 width="1408.000000pt" height="768.000000pt" viewBox="0 0 1408.000000 768.000000"
 preserveAspectRatio="xMidYMid meet">
 <defs>
  <linearGradient id="logoGradient" x1="0%" y1="0%" x2="100%" y2="100%">
    <stop offset="0%" stop-color="#1f496d"/>
    <stop offset="50%" stop-color="#11315a"/>
    <stop offset="100%" stop-color="#0A1F44"/>
  </linearGradient>
</defs>

<g transform="translate(0.000000,768.000000) scale(0.100000,-0.100000)"
fill="url(#logoGradient)" stroke="none">
<path d="M7000 6545 c-9 -9 -53 -19 -115 -25 -333 -36 -609 -169 -840 -404
-209 -212 -325 -427 -387 -720 -18 -87 -21 -135 -21 -346 0 -135 2 -267 4
-293 4 -53 25 -77 66 -77 l23 0 0 -175 0 -175 -30 0 -30 0 0 85 c0 72 3 88 20
105 37 37 14 100 -38 100 -45 0 -72 -71 -37 -100 13 -10 15 -32 13 -103 l-3
-90 -55 -14 c-181 -45 -315 -170 -377 -352 -22 -65 -22 -74 -23 -596 0 -480 2
-541 20 -650 109 -671 577 -1235 1223 -1476 327 -121 734 -144 1066 -59 708
181 1247 744 1403 1466 20 93 21 132 25 667 4 506 2 574 -12 625 -54 187 -181
315 -364 368 l-76 22 -3 169 c-2 143 0 172 13 183 22 18 19 77 -4 90 -27 14
-47 13 -65 -6 -20 -20 -21 -68 -1 -84 12 -10 15 -43 15 -181 l0 -169 -30 0
-30 0 0 236 c0 196 3 238 15 250 18 18 20 65 3 82 -16 16 -63 15 -75 0 -21
-27 -21 -47 -2 -71 13 -18 19 -41 19 -76 l0 -51 -55 0 c-44 0 -53 -3 -49 -15
4 -11 21 -15 55 -15 42 0 49 -3 49 -20 0 -18 -7 -20 -55 -20 -42 0 -55 -3 -55
-15 0 -12 13 -15 55 -15 41 0 55 -4 55 -14 0 -11 -15 -16 -52 -18 -41 -2 -54
-7 -56 -20 -3 -15 5 -18 52 -18 43 0 56 -3 56 -15 0 -11 -12 -15 -50 -15 -43
0 -50 -3 -50 -20 0 -17 7 -20 50 -20 l50 0 0 -64 0 -65 -75 0 -75 0 0 262 0
262 91 90 91 90 -5 145 c-3 99 -12 175 -27 240 -24 103 -29 113 -48 101 -10
-6 -8 -25 8 -92 11 -46 25 -146 31 -222 l11 -137 -50 -58 c-28 -31 -69 -75
-91 -97 l-41 -39 0 -273 0 -273 -30 0 -30 0 0 113 0 113 -45 44 -45 44 0 170
0 170 67 68 67 68 4 67 c3 38 11 77 18 88 18 26 18 50 -2 69 -18 19 -65 21
-82 4 -19 -19 -14 -66 8 -80 16 -11 20 -24 20 -72 l0 -59 -70 -68 -70 -69 0
-183 0 -183 50 -49 50 -49 0 -103 0 -103 -30 0 -30 0 0 100 c0 93 -1 100 -20
100 -19 0 -20 -7 -20 -100 l0 -100 -25 0 -25 0 0 339 c0 289 2 340 15 351 21
17 19 63 -4 84 -14 13 -19 36 -24 105 -7 119 -53 255 -120 357 -28 44 -50 87
-48 97 4 30 -26 67 -55 67 -15 0 -49 19 -87 50 -71 58 -214 132 -302 156 -36
10 -115 18 -195 21 -114 4 -149 2 -225 -16 -112 -27 -228 -83 -322 -155 -44
-34 -83 -56 -98 -56 -28 0 -61 -41 -51 -65 3 -9 -9 -36 -28 -63 -110 -155
-155 -331 -156 -618 0 -80 -15 -104 -66 -104 -22 0 -41 -11 -72 -43 l-42 -43
0 -232 0 -232 -30 0 -30 0 0 248 0 248 39 38 39 38 4 212 c4 193 7 219 32 301
52 173 153 335 281 453 55 50 69 58 95 54 38 -5 60 12 60 49 0 33 -23 59 -54
59 -25 0 -56 -28 -56 -51 0 -8 -48 -64 -108 -124 -140 -145 -215 -273 -264
-452 -17 -63 -22 -116 -25 -285 l-5 -206 -39 -38 -39 -38 0 -253 0 -253 -25 0
-25 0 0 248 0 248 -41 39 -41 40 4 205 c4 168 9 222 27 298 14 55 28 92 35 92
19 0 46 34 46 57 0 42 -72 72 -98 40 -6 -7 -11 -42 -10 -78 1 -35 -7 -95 -16
-134 -13 -50 -19 -129 -23 -278 l-5 -207 41 -45 41 -45 0 -240 0 -240 -25 0
-25 0 0 183 c0 101 -4 187 -9 193 -5 5 -11 22 -13 39 -2 21 -12 34 -33 45 -16
8 -34 20 -38 25 -5 6 -6 116 -3 245 4 178 10 258 25 331 53 262 168 481 355
677 228 239 504 376 828 412 92 10 98 10 118 -10 25 -25 54 -26 80 0 24 24 25
38 4 68 -18 26 -62 30 -84 7z m58 -38 c2 -12 -3 -17 -17 -17 -12 0 -21 6 -21
13 0 31 32 34 38 4z m-599 -543 c-6 -7 -17 -10 -25 -7 -17 6 -18 15 -2 31 17
17 43 -5 27 -24z m761 -60 c147 -30 378 -165 379 -222 1 -40 19 -62 50 -62 24
0 35 -10 66 -55 69 -105 110 -219 126 -353 9 -77 8 -85 -11 -109 -25 -33 -26
-65 0 -88 19 -17 20 -31 20 -352 l0 -333 -810 0 -810 0 0 238 c0 226 1 238 20
250 24 15 27 64 4 83 -14 11 -15 37 -12 199 4 157 8 196 28 255 45 141 123
265 165 265 28 0 58 38 53 66 -4 25 101 108 197 154 177 86 335 104 535 64z
m-772 -227 c2 -12 -3 -17 -17 -17 -12 0 -21 6 -21 13 0 31 32 34 38 4z m1225
6 c4 -3 2 -12 -4 -20 -9 -10 -15 -10 -25 -2 -8 6 -11 15 -8 20 6 11 28 12 37
2z m-1825 -126 c2 -10 -3 -17 -12 -17 -18 0 -29 16 -21 31 9 14 29 6 33 -14z
m2265 -233 c9 -10 -4 -34 -18 -34 -17 0 -28 17 -20 30 7 11 28 13 38 4z m-233
-259 c0 -8 -4 -15 -10 -15 -5 0 -10 7 -10 15 0 8 5 15 10 15 6 0 10 -7 10 -15z
m-1655 -205 c0 -7 -6 -15 -12 -17 -8 -3 -13 4 -13 17 0 13 5 20 13 18 6 -3 12
-11 12 -18z m2123 -3 c2 -12 -3 -17 -17 -17 -12 0 -21 6 -21 13 0 31 32 34 38
4z m-2176 -34 c16 -15 18 -36 18 -255 l0 -238 -25 0 -25 0 0 169 c0 138 3 171
15 181 30 25 5 90 -33 90 -43 0 -67 -63 -37 -94 12 -12 15 -46 15 -180 l0
-166 -25 0 -25 0 0 226 0 226 29 29 c33 33 66 37 93 12z m-457 -84 c0 -7 -8
-15 -17 -17 -18 -3 -25 18 -11 32 10 10 28 1 28 -15z m2733 -16 c-2 -10 -10
-18 -18 -18 -8 0 -16 8 -18 18 -2 12 3 17 18 17 15 0 20 -5 18 -17z m-2783
-153 c3 -5 -1 -10 -10 -10 -9 0 -13 5 -10 10 3 6 8 10 10 10 2 0 7 -4 10 -10z
m1456 -1034 c167 -39 281 -183 281 -356 0 -106 -28 -174 -104 -255 l-60 -65
72 -317 c39 -175 73 -324 75 -330 3 -10 -69 -13 -341 -13 l-346 0 4 28 c3 15
35 163 73 330 l68 303 -51 52 c-27 29 -63 77 -79 107 -26 50 -28 64 -28 160 0
123 16 169 86 245 52 56 106 89 179 109 69 19 101 19 171 2z"/>
<path d="M6928 3280 c-95 -97 -111 -123 -86 -148 22 -22 42 -13 100 45 l58 57
0 -388 0 -389 -54 52 c-56 53 -73 60 -94 39 -27 -27 -11 -55 82 -146 51 -51
99 -92 106 -92 7 0 55 41 106 92 74 72 94 98 94 119 0 19 -6 30 -20 34 -25 8
-50 -6 -87 -48 -16 -18 -35 -37 -41 -41 -9 -5 -12 85 -12 380 l0 387 59 -56
c33 -32 66 -57 74 -57 23 0 40 27 33 53 -6 26 -187 207 -206 207 -8 0 -58 -45
-112 -100z"/>
<path d="M7183 6524 c-15 -24 -15 -29 -2 -53 17 -31 63 -40 88 -17 15 13 25
14 82 2 449 -95 836 -444 984 -889 49 -149 66 -244 72 -408 6 -140 5 -147 -16
-168 -26 -26 -27 -45 -1 -71 24 -24 38 -25 68 -4 26 18 28 42 7 70 -10 13 -14
45 -15 100 -1 418 -138 755 -419 1035 -120 119 -197 176 -343 254 -89 47 -262
108 -340 120 -29 4 -58 17 -73 31 -34 32 -70 31 -92 -2z m64 -20 c8 -21 -13
-42 -28 -27 -13 13 -5 43 11 43 6 0 13 -7 17 -16z"/>
<path d="M6742 6424 c-12 -8 -22 -21 -22 -27 0 -7 -30 -20 -67 -30 -158 -41
-367 -164 -512 -302 -157 -150 -316 -405 -252 -405 5 0 29 36 52 80 24 44 46
80 50 80 4 0 16 -26 27 -58 l19 -58 -23 -45 c-13 -24 -35 -78 -50 -119 -15
-41 -40 -89 -56 -105 -25 -28 -28 -38 -28 -104 0 -65 -2 -73 -20 -78 -13 -3
-20 -12 -18 -22 5 -24 101 -23 106 2 2 12 -3 17 -19 17 -21 0 -22 2 -16 73 5
61 10 75 31 92 16 12 35 48 50 90 13 39 37 98 54 133 l30 63 -28 85 -29 84 42
52 c134 172 365 331 576 399 62 20 76 21 106 10 40 -14 70 -3 80 29 9 30 -2
55 -31 68 -31 15 -25 15 -52 -4z m48 -44 c0 -11 -6 -20 -14 -20 -18 0 -29 16
-21 30 11 18 35 11 35 -10z"/>
<path d="M7223 6403 c-15 -15 -34 -18 -128 -15 l-110 3 -67 -68 -66 -69 -107
-2 c-104 -2 -110 -3 -200 -46 -128 -60 -220 -122 -308 -205 -51 -49 -82 -71
-99 -71 -29 0 -58 -28 -58 -56 0 -31 24 -56 53 -56 37 0 57 19 57 55 0 25 12
43 61 90 105 99 299 217 404 246 22 6 80 11 129 11 l89 0 62 65 63 65 99 0
c86 0 101 -2 116 -20 19 -22 66 -27 85 -8 20 20 14 65 -10 82 -29 21 -44 20
-65 -1z m52 -43 c0 -8 -8 -16 -17 -18 -13 -2 -18 3 -18 18 0 15 5 20 18 18 9
-2 17 -10 17 -18z m-1117 -487 c5 -18 -28 -29 -38 -12 -5 7 -6 17 -3 22 7 12
35 5 41 -10z"/>
<path d="M7364 6313 l-64 -55 -143 7 -142 7 -50 -51 c-41 -43 -55 -51 -85 -51
-20 0 -72 -9 -115 -21 -65 -17 -83 -18 -102 -8 -52 28 -106 -39 -67 -82 24
-27 75 -22 89 9 11 25 39 36 150 57 l79 15 55 -54 56 -54 88 -6 c148 -12 316
-67 423 -140 33 -22 39 -24 47 -10 11 19 -3 30 -93 78 -119 63 -236 98 -375
111 -63 6 -75 11 -113 46 l-44 38 21 28 c43 54 51 56 199 49 l137 -7 58 51
c50 45 62 52 88 46 47 -9 205 -89 294 -148 170 -112 395 -376 400 -469 1 -21
-2 -39 -6 -39 -5 0 -9 -29 -9 -65 0 -52 -4 -69 -20 -85 -38 -38 -15 -90 39
-90 52 0 68 46 31 93 -11 14 -20 40 -20 60 0 34 1 35 50 41 28 4 50 11 50 16
0 6 -22 10 -50 10 -55 0 -62 12 -39 63 14 31 -16 93 -100 203 -147 196 -344
344 -577 434 l-75 28 -65 -55z m-709 -223 c0 -8 -8 -16 -17 -18 -13 -2 -18 3
-18 18 0 15 5 20 18 18 9 -2 17 -10 17 -18z m1520 -620 c0 -8 -8 -16 -17 -18
-13 -2 -18 3 -18 18 0 15 5 20 18 18 9 -2 17 -10 17 -18z"/>
<path d="M7494 6215 c-30 -45 9 -93 66 -80 34 7 71 -10 148 -67 34 -25 51 -45
48 -54 -5 -13 12 -19 37 -15 5 1 11 -8 14 -19 3 -11 11 -20 17 -20 14 0 106
-94 164 -168 l42 -54 0 -97 c0 -102 3 -113 26 -104 11 4 14 28 14 102 0 94 -1
98 -35 150 -19 29 -51 71 -70 94 -19 22 -35 47 -35 55 0 8 -6 12 -14 9 -13 -5
-31 18 -28 36 1 4 -6 7 -16 7 -10 0 -25 11 -32 25 -7 14 -17 25 -22 25 -4 0
-36 21 -70 46 -35 25 -79 54 -99 65 -20 10 -46 34 -57 54 -27 44 -72 49 -98
10z m63 -21 c8 -21 -13 -42 -28 -27 -13 13 -5 43 11 43 6 0 13 -7 17 -16z"/>
<path d="M7067 6164 c-9 -10 2 -24 19 -24 8 0 14 7 14 15 0 15 -21 21 -33 9z"/>
<path d="M7140 6156 c0 -8 4 -17 9 -20 11 -7 33 18 24 27 -12 12 -33 7 -33 -7z"/>
<path d="M7220 6145 c0 -8 17 -19 43 -25 23 -6 59 -16 80 -21 56 -15 87 -30
87 -44 0 -24 38 -48 65 -41 38 10 52 48 31 82 -15 22 -23 25 -54 21 -22 -3
-70 5 -121 19 -97 28 -131 30 -131 9z m277 -71 c8 -20 -8 -36 -26 -25 -15 10
-8 41 9 41 6 0 13 -7 17 -16z"/>
<path d="M6794 6056 c-9 -15 -36 -32 -67 -42 -133 -43 -314 -164 -403 -271
-142 -168 -205 -324 -225 -550 -7 -76 -15 -120 -25 -130 -7 -8 -14 -25 -14
-38 0 -57 71 -73 99 -23 14 25 14 29 -8 59 -22 29 -23 37 -17 118 27 333 207
607 496 751 111 55 145 65 181 50 24 -10 33 -10 54 4 27 18 34 63 13 84 -21
21 -66 14 -84 -12z m61 -27 c0 -7 -8 -15 -17 -17 -18 -3 -25 18 -11 32 10 10
28 1 28 -15z m-725 -1005 c0 -14 -21 -19 -33 -7 -9 9 13 34 24 27 5 -3 9 -12
9 -20z"/>
<path d="M7597 6013 c-13 -12 -7 -20 36 -48 23 -16 70 -55 105 -88 48 -47 62
-67 62 -89 0 -40 17 -68 41 -68 31 0 79 41 79 66 0 26 -34 54 -65 54 -12 0
-48 25 -80 56 -56 52 -152 124 -166 124 -3 0 -9 -3 -12 -7z m281 -230 c5 -17
-26 -29 -40 -15 -6 6 -7 15 -3 22 9 14 37 9 43 -7z"/>
<path d="M7596 5864 c-7 -19 10 -44 31 -44 23 0 28 31 8 46 -24 18 -32 18 -39
-2z"/>
<path d="M7660 5825 c0 -14 4 -25 9 -25 4 0 6 11 3 25 -2 14 -6 25 -8 25 -2 0
-4 -11 -4 -25z"/>
<path d="M7731 5824 c0 -11 3 -14 6 -6 3 7 2 16 -1 19 -3 4 -6 -2 -5 -13z"/>
<path d="M7769 5755 c-5 -69 -4 -71 36 -135 51 -79 76 -134 103 -221 32 -103
37 -154 18 -181 -22 -32 -20 -64 6 -82 30 -21 44 -20 68 4 25 25 26 54 1 79
-12 12 -25 50 -34 98 -21 109 -67 224 -129 318 -43 65 -54 90 -58 135 l-6 55
-5 -70z m211 -575 c0 -11 -6 -20 -14 -20 -18 0 -29 16 -21 30 11 18 35 11 35
-10z"/>
<path d="M7930 5766 c0 -15 -11 -38 -25 -52 -14 -14 -25 -27 -25 -29 0 -3 15
-24 33 -47 17 -24 46 -73 62 -110 21 -47 35 -68 48 -68 14 0 17 5 12 23 -8 26
-46 107 -76 160 -16 29 -19 41 -10 50 16 16 14 72 -4 87 -13 11 -15 8 -15 -14z"/>
<path d="M7730 5750 c0 -11 4 -20 9 -20 5 0 7 9 4 20 -3 11 -7 20 -9 20 -2 0
-4 -9 -4 -20z"/>
<path d="M8185 5363 c3 -10 12 -69 18 -131 l11 -113 -87 -87 -88 -88 3 -154
c2 -112 6 -154 16 -158 9 -3 12 29 12 138 l0 142 89 97 89 97 -8 104 c-12 146
-18 170 -42 170 -15 0 -18 -4 -13 -17z"/>
<path d="M5840 5165 c0 -12 13 -15 55 -15 42 0 55 3 55 15 0 12 -13 15 -55 15
-42 0 -55 -3 -55 -15z"/>
<path d="M5840 5101 c0 -19 6 -21 56 -21 47 0 55 3 52 18 -2 13 -15 18 -56 20
-47 3 -52 1 -52 -17z"/>
<path d="M5840 5030 c0 -18 7 -20 55 -20 48 0 55 2 55 20 0 18 -7 20 -55 20
-48 0 -55 -2 -55 -20z"/>
<path d="M5842 4963 c3 -14 14 -18 53 -18 39 0 50 4 53 18 3 14 -5 17 -53 17
-48 0 -56 -3 -53 -17z"/>
</g>
</svg>
