<?xml version="1.0" standalone="no"?>
<!DOCTYPE svg PUBLIC "-//W3C//DTD SVG 20010904//EN"
 "http://www.w3.org/TR/2001/REC-SVG-20010904/DTD/svg10.dtd">
<svg version="1.0" xmlns="http://www.w3.org/2000/svg"
 width="1408.000000pt"
 height="768.000000pt"
 viewBox="0 0 1408.000000 768.000000"
 preserveAspectRatio="xMidYMid meet"
 >
 <defs>
  <linearGradient id="logoGradient" x1="0%" y1="0%" x2="100%" y2="100%">
    <stop offset="0%" stop-color="#1f496d"/>
    <stop offset="50%" stop-color="#11315a"/>
    <stop offset="100%" stop-color="#0A1F44"/>
  </linearGradient>
</defs>

<g transform="translate(0.000000,768.000000) scale(0.100000,-0.100000)"
fill="url(#logoGradient)" stroke="none">
<path d="M6940 6284 c-424 -39 -805 -300 -975 -667 -100 -215 -115 -317 -115
-758 l0 -347 78 17 77 16 5 365 c6 415 12 451 94 626 60 126 116 206 206 294
211 207 489 312 784 297 421 -22 781 -287 921 -677 51 -144 57 -191 62 -561
l5 -345 74 -15 74 -15 0 350 c0 386 -7 459 -60 618 -56 167 -138 304 -257 429
-223 233 -498 358 -823 372 -58 3 -125"/>

<path d="M6877 6020 c-140 -25 -306 -98 -415 -183 -113 -87 -233 -243 -284
-371 -61 -153 -61 -154 -66 -540 l-4 -359 34 6 c18 4 52 9 74 13 l42 6 5 312
c4 277 7 320 26 390 98 365 444 612 811 580 279 -24 515 -184 635 -429 73
-149 77 -177 82 -536 l5 -315 69 -12 c38 -7 73 -12 77 -12 14 0 3 650 -13 727
-66 331 -317 599 -652 699 -73 22 -112 27 -233 30 -80 1 -167 -1 -193 -6z"/>
<path d="M6800 4555 c-113 -16 -655 -114 -860 -156 -80 -17 -167 -40 -195 -53
-66 -30 -144 -102 -178 -163 -56 -103 -57 -120 -57 -700 l0 -533 25 -16 c23
-15 27 -15 50 0 31 20 33 36 39 291 6 295 35 423 147 650 70 144 161 272 265
376 l76 77 92 17 c50 9 97 18 104 20 23 8 12 -2 -81 -73 -51 -39 -115 -94
-141 -122 -39 -42 -47 -56 -44 -83 2 -24 9 -34 30 -41 25 -9 34 -3 120 80 51
49 125 111 165 137 270 179 604 244 932 182 288 -55 576 -243 749 -488 50 -71
57 -78 85 -75 66 7 61 51 -15 153 -82 108 -164 191 -260 263 -48 36 -88 66
-88 67 0 6 202 -35 218 -44 10 -6 46 -39 79 -74 209 -224 339 -486 389 -782
16 -96 32 -553 21 -598 -16 -60 -82 -79 -113 -32 -15 23 -15 35 -3 123 21 143
18 395 -5 517 -18 98 -78 288 -98 313 -16 18 -53 15 -73 -8 -17 -19 -16 -23
18 -127 57 -172 71 -264 70 -453 -1 -91 -8 -203 -15 -250 -15 -91 -11 -134 16
-175 62 -94 228 -85 285 15 21 37 21 45 21 627 0 343 -4 612 -10 642 -21 113
-107 229 -209 280 -61 32 -299 82 -799 171 -352 62 -545 73 -752 45z m-901
-293 c-8 -11 -44 -59 -82 -108 -37 -49 -97 -147 -133 -219 l-65 -130 3 125 c3
113 6 130 31 182 17 35 46 72 73 95 44 35 128 72 168 73 16 0 17 -2 5 -18z
m2368 -3 c41 -15 73 -37 109 -73 68 -70 84 -119 84 -259 l0 -110 -62 123 c-36
70 -98 168 -145 231 -91 121 -90 126 14 88z"/>
<path d="M6833 4355 c-295 -53 -556 -227 -726 -481 -138 -207 -197 -426 -197
-736 -1 -211 -35 -333 -115 -411 -41 -40 -135 -91 -146 -80 -4 5 -10 25 -13
45 -6 36 -5 38 33 57 21 11 55 39 74 62 60 69 67 106 77 374 12 320 41 445
153 657 51 95 51 97 33 117 -26 29 -60 26 -86 -6 -12 -16 -41 -68 -65 -118
-103 -214 -145 -424 -145 -733 0 -145 -10 -185 -57 -234 -15 -15 -42 -33 -62
-39 -50 -16 -71 -37 -71 -70 0 -48 38 -229 66 -313 34 -104 105 -257 128 -276
45 -37 290 70 405 176 76 71 164 192 182 253 16 54 -1 83 -44 79 -28 -3 -36
-11 -65 -68 -49 -95 -106 -164 -181 -220 -63 -48 -191 -110 -226 -110 -13 0
-53 68 -43 74 2 1 31 14 65 28 278 117 395 344 410 798 3 124 11 198 25 255
22 91 81 223 129 290 28 39 31 48 21 70 -6 13 -24 28 -39 31 -22 6 -31 2 -55
-27 -38 -45 -111 -189 -136 -269 -33 -104 -43 -173 -52 -380 -10 -218 -29
-318 -82 -429 -53 -110 -154 -203 -276 -250 l-53 -21 -8 23 c-24 64 -25 61 47
92 122 53 220 173 251 310 17 73 30 234 31 361 1 375 187 709 501 895 238 141
555 177 822 93 87 -28 114 -25 123 13 10 38 -6 55 -74 80 -140 51 -395 68
-559 38z"/>
<path d="M7581 4204 c-13 -9 -21 -26 -21 -42 0 -23 13 -37 74 -81 165 -117
297 -289 366 -473 64 -172 80 -340 54 -553 -25 -202 -24 -267 8 -337 35 -75
85 -128 160 -168 51 -27 77 -34 140 -38 102 -6 144 3 164 34 14 20 15 30 5 50
-11 25 -12 25 -100 19 -78 -7 -94 -5 -137 14 -132 59 -173 151 -146 328 9 56
15 170 16 268 0 151 -3 181 -26 275 -69 276 -228 516 -438 662 -81 56 -93 60
-119 42z"/>
<path d="M6881 4159 c-144 -25 -324 -107 -412 -186 -42 -38 -48 -62 -23 -87
25 -25 51 -19 117 28 156 111 279 149 477 149 162 0 246 -19 378 -88 152 -79
269 -190 341 -325 32 -60 55 -76 91 -65 39 12 35 50 -11 132 -81 141 -228 278
-386 357 -126 63 -229 87 -383 91 -74 2 -159 0 -189 -6z"/>
<path d="M6890 3954 c-191 -41 -351 -151 -452 -310 -91 -141 -115 -234 -128
-478 -5 -94 -16 -208 -25 -253 -19 -97 -11 -123 35 -123 20 0 34 8 44 23 21
33 46 212 53 372 6 174 22 245 75 349 194 373 691 447 988 147 130 -131 184
-263 184 -446 0 -119 -10 -161 -63 -277 -50 -109 -40 -220 35 -378 101 -216
316 -389 558 -450 111 -28 153 -27 168 5 8 19 8 29 -4 47 -12 18 -31 26 -88
36 -290 50 -548 293 -592 559 -11 68 -11 76 11 125 61 140 74 197 75 328 0
147 -15 216 -73 335 -48 97 -116 183 -195 247 -160 128 -404 186 -606 142z"/>
<path d="M6925 3758 c-132 -25 -278 -137 -348 -266 -47 -87 -67 -178 -67 -303
0 -189 -79 -530 -161 -699 -45 -91 -63 -116 -138 -190 -95 -93 -176 -142 -314
-191 -84 -30 -97 -40 -97 -75 0 -57 61 -56 196 1 268 114 425 292 513 580 57
186 101 424 101 550 0 119 13 185 51 263 82 167 266 264 445 234 339 -56 482
-463 252 -717 l-44 -48 26 -121 c58 -265 125 -393 291 -558 134 -134 279 -219
464 -273 108 -31 111 -31 131 0 30 46 9 68 -90 94 -328 87 -591 345 -675 663
-37 142 -37 158 -1 203 73 91 110 202 110 328 0 347 -300 591 -645 525z"/>
<path d="M6975 3531 c-87 -23 -159 -81 -203 -165 -22 -43 -27 -64 -27 -131 0
-68 4 -89 28 -137 26 -53 62 -93 115 -128 l23 -15 -35 -160 c-62 -281 -76
-349 -76 -357 0 -4 108 -8 240 -8 222 0 240 1 239 18 0 9 -24 127 -54 262 -48
222 -51 246 -36 255 49 30 119 115 136 165 35 106 9 229 -66 314 -59 68 -197
110 -284 87z"/>
<path d="M7860 3465 c-11 -13 -11 -35 0 -117 15 -120 8 -214 -25 -344 -39
-148 -31 -264 27 -379 93 -184 308 -314 519 -315 69 0 89 10 89 45 0 37 -30
52 -112 58 -182 15 -330 114 -410 274 -42 85 -48 169 -19 278 36 134 47 251
34 365 -7 58 -18 111 -27 125 -19 28 -57 33 -76 10z"/>
<path d="M6687 2928 c-12 -9 -32 -82 -66 -233 -27 -121 -59 -245 -70 -276 -67
-177 -256 -357 -460 -439 -132 -53 -146 -61 -149 -96 -7 -70 47 -68 207 7 246
115 434 306 506 516 13 37 42 156 65 263 23 107 43 203 46 212 5 19 -28 58
-49 58 -7 0 -21 -6 -30 -12z"/>
<path d="M6722 2243 c-119 -174 -294 -323 -482 -409 -123 -56 -125 -58 -128
-87 -4 -36 13 -57 47 -57 34 0 220 94 318 162 103 70 255 223 321 322 64 96
65 120 5 124 -41 3 -42 2 -81 -55z"/>
<path d="M6992 2288 c-5 -7 -43 -62 -83 -123 -129 -194 -319 -369 -511 -471
-93 -49 -111 -72 -88 -113 19 -36 59 -26 176 44 134 80 293 212 381 314 106
124 222 305 223 349 0 8 -15 12 -44 12 -24 0 -48 -6 -54 -12z"/>
<path d="M7233 2273 c-30 -19 -57 -53 -103 -130 -73 -124 -191 -273 -286 -364
-61 -58 -211 -175 -286 -222 -32 -20 -43 -49 -28 -77 18 -33 60 -25 136 26
223 152 419 358 551 581 30 51 63 98 74 104 37 19 71 -1 158 -93 139 -148 302
-255 491 -322 80 -29 115 -28 125 4 11 36 -4 58 -53 76 -229 84 -376 180 -519
341 -37 42 -82 82 -100 90 -53 22 -114 17 -160 -14z"/>
<path d="M7286 2024 c-30 -29 -19 -56 52 -123 104 -99 227 -186 345 -246 121
-62 149 -67 172 -31 25 37 7 58 -92 105 -122 59 -234 136 -336 230 -88 82
-113 94 -141 65z"/>
<path d="M7156 1795 c-25 -9 -79 -53 -155 -127 -64 -62 -140 -132 -169 -156
-36 -30 -52 -50 -52 -67 0 -28 24 -55 49 -55 23 0 175 129 271 230 99 104 117
106 225 15 66 -56 235 -165 256 -165 22 0 49 32 49 58 0 16 -22 36 -86 77 -47
31 -124 85 -170 120 -73 56 -134 86 -169 85 -5 -1 -27 -7 -49 -15z"/>
<path d="M7175 1560 c-27 -30 -12 -60 59 -112 78 -58 89 -63 115 -48 15 7 21
21 21 44 0 29 -8 38 -72 84 -78 57 -96 62 -123 32z"/>
</g>
</svg>
