<?xml version="1.0" encoding="UTF-8"?>
<svg version="1.1" xmlns="http://www.w3.org/2000/svg" width="177" height="170">
<path d="M0 0 C3.79720108 2.6619554 7.14877426 5.78958795 8.484375 10.3359375 C8.76953125 12.265625 8.76953125 12.265625 8.89453125 15.328125 C9.77109375 15.5653125 10.64765625 15.8025 11.55078125 16.046875 C19.93104604 19.2580045 26.23253703 26.92959829 30.67578125 34.515625 C35.06849995 44.65266816 35.3391722 54.29475792 35.33032227 65.18017578 C35.33390596 67.22479065 35.36125853 69.26811665 35.390625 71.3125 C35.39247803 72.51616211 35.39433105 73.71982422 35.39624023 74.95996094 C36.21468919 80.49221072 39.27832684 84.17997228 43.58203125 87.578125 C46.80200456 90.14307162 46.80200456 90.14307162 47.89453125 92.328125 C48.34668409 97.64092087 48.34668409 97.64092087 46.79370117 100.0012207 C43.96433201 101.97803281 41.67701942 101.66588685 38.2578125 101.62109375 C36.95908203 101.61142578 35.66035156 101.60175781 34.32226562 101.59179688 C32.95051486 101.56673085 31.57877007 101.54133601 30.20703125 101.515625 C28.82358201 101.5005752 27.44011724 101.4868873 26.05664062 101.47460938 C22.66887918 101.43919723 19.28189986 101.38980554 15.89453125 101.328125 C15.78278564 102.07070557 15.67104004 102.81328613 15.5559082 103.57836914 C15.39566162 104.55926514 15.23541504 105.54016113 15.0703125 106.55078125 C14.91731689 107.52023682 14.76432129 108.48969238 14.60668945 109.48852539 C13.01766729 115.82445848 8.25847762 120.79577008 2.89453125 124.328125 C-3.23814905 127.83251374 -9.12544364 128.2540467 -16.10546875 127.328125 C-23.4009212 125.08974754 -29.06669987 120.81259281 -33.10546875 114.328125 C-34.88854573 110.03600398 -36.10546875 105.98892554 -36.10546875 101.328125 C-36.96825439 101.34383545 -37.83104004 101.3595459 -38.7199707 101.37573242 C-41.92356142 101.42688455 -45.1269439 101.4644866 -48.33081055 101.49291992 C-49.71694794 101.50799897 -51.10303769 101.5284655 -52.48901367 101.55444336 C-54.48205021 101.59086216 -56.47543598 101.60625518 -58.46875 101.62109375 C-59.66798096 101.6368042 -60.86721191 101.65251465 -62.1027832 101.66870117 C-65.10546875 101.328125 -65.10546875 101.328125 -66.98120117 99.9777832 C-68.88904573 97.17836828 -68.73270053 95.65245341 -68.10546875 92.328125 C-64.96133965 87.86964686 -60.95057813 84.17323438 -57.10546875 80.328125 C-55.67344323 77.46407396 -55.95924667 74.97220793 -55.9296875 71.7734375 C-55.90644519 70.42186018 -55.88232622 69.07029771 -55.85742188 67.71875 C-55.82267385 65.60179352 -55.7931764 63.48536762 -55.77954102 61.36816406 C-55.66355132 46.28593463 -52.586872 34.13459945 -41.86328125 23 C-37.90325698 19.29331061 -34.56184517 16.4473817 -29.10546875 15.328125 C-29.08484375 14.338125 -29.06421875 13.348125 -29.04296875 12.328125 C-28.28618047 7.08390199 -24.95702914 3.74148391 -21.10546875 0.328125 C-13.893147 -3.86813493 -7.17267053 -4.01782728 0 0 Z M-15.35546875 10.765625 C-17.20581195 13.47505611 -17.31218174 14.55414449 -17.66796875 17.703125 C-18.25819201 20.96264624 -18.65526443 22.00567097 -21.390625 23.96484375 C-23.32294076 24.93498853 -25.26487172 25.8861636 -27.21484375 26.8203125 C-35.63146418 31.2106037 -40.14536674 38.51134046 -43.10546875 47.328125 C-43.94767015 51.59056415 -44.24947285 55.67118019 -44.31640625 60.01171875 C-44.34476563 61.26919922 -44.373125 62.52667969 -44.40234375 63.82226562 C-44.45434688 66.44712383 -44.49864192 69.07214627 -44.53515625 71.69726562 C-44.56609375 72.95603516 -44.59703125 74.21480469 -44.62890625 75.51171875 C-44.64872559 76.65181396 -44.66854492 77.79190918 -44.68896484 78.96655273 C-45.10546875 82.328125 -45.10546875 82.328125 -48.10546875 89.328125 C-23.02546875 89.328125 2.05453125 89.328125 27.89453125 89.328125 C26.90453125 87.348125 25.91453125 85.368125 24.89453125 83.328125 C24.49389648 80.14355469 24.49389648 80.14355469 24.453125 76.75 C24.41348633 74.88408203 24.41348633 74.88408203 24.37304688 72.98046875 C24.35951172 71.69269531 24.34597656 70.40492187 24.33203125 69.078125 C24.13741825 54.84975216 23.78348849 42.59113939 13.76953125 31.640625 C10.83293535 28.80105319 7.83687968 27.2879064 4.14453125 25.578125 C0.7498302 23.87149934 -0.76689724 23.06378654 -2.37109375 19.578125 C-3.10546875 16.578125 -3.10546875 16.578125 -3.54296875 13.71875 C-3.90253081 10.97022305 -3.90253081 10.97022305 -7.10546875 9.328125 C-10.56115052 8.88697414 -12.3924327 8.87257419 -15.35546875 10.765625 Z M-24.10546875 101.328125 C-23.12056788 107.23753019 -22.48554689 110.23654118 -18.04296875 114.140625 C-13.66786706 115.90928313 -9.74754754 116.22472589 -5.10546875 115.328125 C-1.20490273 113.18495686 1.24420007 110.54396155 3.33203125 106.640625 C4.01270704 104.23894605 4.01270704 104.23894605 3.89453125 101.328125 C-5.34546875 101.328125 -14.58546875 101.328125 -24.10546875 101.328125 Z " fill="#3A3A3A" transform="translate(95.10546875,20.671875)"/>
</svg>
