<?xml version="1.0" encoding="UTF-8"?>
<svg version="1.1" xmlns="http://www.w3.org/2000/svg" width="220" height="166">
<path d="M0 0 C1.1016449 -0.01606293 2.20328979 -0.03212585 3.33831787 -0.04867554 C8.38374264 -0.09307976 13.42903491 -0.13419594 18.47460938 -0.15722656 C21.13669014 -0.17054996 23.796955 -0.20106092 26.45898438 -0.23925781 C30.29352933 -0.29400982 34.12703089 -0.3159002 37.96191406 -0.33056641 C39.74344879 -0.36457047 39.74344879 -0.36457047 41.56097412 -0.39926147 C50.77647795 -0.37569007 50.77647795 -0.37569007 54.43945312 2.51855469 C56.87368479 5.36368632 57.8840421 7.56583415 58.72753906 11.19287109 C60.02949219 11.21865234 61.33144531 11.24443359 62.67285156 11.27099609 C64.39944662 11.32729811 66.12600782 11.38464497 67.85253906 11.44287109 C69.13644531 11.46414062 69.13644531 11.46414062 70.44628906 11.48583984 C78.739075 11.80479315 83.13039673 15.16517935 88.72753906 21.19287109 C89.49066406 22.14162109 90.25378906 23.09037109 91.04003906 24.06787109 C93.59329743 27.22712432 96.58310897 29.67677682 99.76269531 32.18896484 C105.99266393 38.54278969 106.26986932 44.39155339 106.22558594 52.89013672 C106.20999634 53.96581909 106.20999634 53.96581909 106.1940918 55.06323242 C106.16506124 57.25369785 106.17351789 59.4417476 106.18652344 61.63232422 C106.13339634 73.61661959 106.13339634 73.61661959 102.72753906 79.19287109 C100.12819097 81.17658411 98.41417047 82.10913556 95.16503906 82.50537109 C91.512105 83.53568583 90.69730387 86.05355843 88.72753906 89.19287109 C83.92483026 93.52702294 80.31262047 94.51224552 74.00097656 94.39990234 C67.86334433 93.84097707 64.57584925 90.28124093 60.82910156 85.81396484 C59.72753906 84.19287109 59.72753906 84.19287109 59.72753906 82.19287109 C55.51760868 82.12828235 51.31266967 82.15260417 47.10253906 82.19287109 C45.91273437 82.17353516 44.72292969 82.15419922 43.49707031 82.13427734 C37.08917603 82.07098855 37.08917603 82.07098855 31.65161133 84.97021484 C30.04394226 87.07488373 30.04394226 87.07488373 28.84448242 89.28271484 C27.05802691 92.33784662 25.03748184 93.15445767 21.72753906 94.19287109 C15.32259869 95.13512489 9.97079341 94.07500975 4.72753906 90.19287109 C2.5732035 87.81399915 0.72753906 85.52421035 0.72753906 82.19287109 C-0.13871094 82.29599609 -1.00496094 82.39912109 -1.89746094 82.50537109 C-6.55484999 82.07413137 -7.96035243 80.42795383 -11.27246094 77.19287109 C-12.68437838 74.36903622 -12.43107205 71.97693691 -12.46533203 68.81884766 C-12.47350952 68.16495056 -12.48168701 67.51105347 -12.4901123 66.83734131 C-12.51496002 64.6694022 -12.53148243 62.50152865 -12.54589844 60.33349609 C-12.55122211 59.5926049 -12.55654579 58.85171371 -12.56203079 58.08837128 C-12.5887624 54.16520726 -12.60813535 50.24207503 -12.62255859 46.31884766 C-12.63588874 43.07507061 -12.66372268 39.83192403 -12.70458984 36.58837891 C-12.75396318 32.66970614 -12.77868545 28.7516045 -12.78578568 24.83263397 C-12.7924902 23.34150714 -12.80769178 21.85039266 -12.83167648 20.35944366 C-13.03089481 7.22377836 -13.03089481 7.22377836 -9.86474609 3.29345703 C-6.26138386 0.373573 -4.5614371 0.06033347 0 0 Z M-1.27246094 11.19287109 C-1.27246094 30.99287109 -1.27246094 50.79287109 -1.27246094 71.19287109 C-0.61246094 71.19287109 0.04753906 71.19287109 0.72753906 71.19287109 C1.62472656 69.83162109 1.62472656 69.83162109 2.54003906 68.44287109 C5.2115387 64.47378592 7.23555238 61.81162969 12.02441406 60.62255859 C17.72672924 59.81041067 21.64315969 60.2020597 26.72753906 63.19287109 C29.76811479 65.83684998 31.4512602 67.36403451 32.72753906 71.19287109 C37.34753906 71.19287109 41.96753906 71.19287109 46.72753906 71.19287109 C46.72753906 51.39287109 46.72753906 31.59287109 46.72753906 11.19287109 C30.88753906 11.19287109 15.04753906 11.19287109 -1.27246094 11.19287109 Z M57.72753906 23.19287109 C57.72753906 39.03287109 57.72753906 54.87287109 57.72753906 71.19287109 C60.97497537 70.47194309 60.97497537 70.47194309 62.41503906 67.38037109 C65.31975232 63.37657714 68.08687381 61.74849899 72.72753906 60.19287109 C78.53605705 59.36308281 83.04153102 60.77681061 87.72753906 64.19287109 C89.61824763 66.42257034 91.12244434 68.73802034 92.72753906 71.19287109 C93.38753906 71.19287109 94.04753906 71.19287109 94.72753906 71.19287109 C96.37863771 59.47261086 98.10739335 46.9775359 90.87207031 36.88037109 C89.23486226 35.01640292 87.53971383 33.2016962 85.79003906 31.44287109 C84.57525879 30.17685059 84.57525879 30.17685059 83.3359375 28.88525391 C74.58968081 21.06175219 71.00980383 23.19287109 57.72753906 23.19287109 Z M12.35253906 71.75537109 C10.28979813 74.84948249 10.1835352 76.54027371 10.72753906 80.19287109 C11.72753906 82.19287109 11.72753906 82.19287109 13.72753906 83.19287109 C16.9140353 83.59118312 18.84959187 83.79835192 21.54003906 81.94287109 C22.93958906 79.88037635 23.5801839 78.69790881 23.72753906 76.19287109 C22.78950124 73.40696999 22.78950124 73.40696999 20.72753906 71.19287109 C17.09879663 69.88034724 15.61704077 69.6076726 12.35253906 71.75537109 Z M71.97753906 71.75537109 C69.31774483 74.0839459 69.31774483 74.0839459 69.72753906 77.81787109 C70.4101143 81.44360998 70.4101143 81.44360998 73.72753906 83.19287109 C76.18463281 83.77637614 76.18463281 83.77637614 78.72753906 83.19287109 C81.23151404 81.10457366 81.23151404 81.10457366 82.72753906 78.19287109 C82.897314 75.5415964 82.897314 75.5415964 81.72753906 73.19287109 C78.32083376 69.89972264 76.22466945 69.34222883 71.97753906 71.75537109 Z " fill="#3B3B3B" transform="translate(61.2724609375,33.80712890625)"/>
</svg>
