<?xml version="1.0" standalone="no"?>
<!DOCTYPE svg PUBLIC "-//W3C//DTD SVG 20010904//EN"
 "http://www.w3.org/TR/2001/REC-SVG-20010904/DTD/svg10.dtd">
<svg version="1.0" xmlns="http://www.w3.org/2000/svg"
 width="194.000000pt" height="188.000000pt" viewBox="0 0 194.000000 188.000000"
 preserveAspectRatio="xMidYMid meet">

<g transform="translate(0.000000,188.000000) scale(0.100000,-0.100000)"
fill="#000000" stroke="none">
<path d="M547 1502 l-88 -87 -28 33 c-15 17 -32 32 -38 32 -6 0 -26 -17 -43
-37 l-33 -37 67 -63 c36 -35 71 -63 78 -63 6 0 65 53 130 118 l119 117 -38 37
-38 38 -88 -88z"/>
<path d="M890 1450 l0 -50 340 0 340 0 0 50 0 50 -340 0 -340 0 0 -50z"/>
<path d="M547 1083 l-87 -87 -33 32 -33 32 -37 -38 -37 -38 70 -69 71 -68 120
119 c65 65 119 123 119 129 0 6 -15 25 -33 43 l-33 32 -87 -87z"/>
<path d="M890 1030 l0 -50 340 0 340 0 0 50 0 50 -340 0 -340 0 0 -50z"/>
<path d="M543 658 l-83 -82 -33 32 -33 32 -37 -38 -37 -38 69 -68 70 -69 48
40 c67 57 193 188 193 202 0 14 -54 71 -66 71 -5 0 -46 -37 -91 -82z"/>
<path d="M890 600 l0 -50 340 0 340 0 0 50 0 50 -340 0 -340 0 0 -50z"/>
</g>
</svg>
