<?xml version="1.0" standalone="no"?>
<!DOCTYPE svg PUBLIC "-//W3C//DTD SVG 20010904//EN"
 "http://www.w3.org/TR/2001/REC-SVG-20010904/DTD/svg10.dtd">
<svg version="1.0" xmlns="http://www.w3.org/2000/svg"
 width="474.000000pt" height="408.000000pt" viewBox="0 0 474.000000 408.000000"
 preserveAspectRatio="xMidYMid meet">

<g transform="translate(0.000000,408.000000) scale(0.100000,-0.100000)"
fill="#000000" stroke="none">
<path d="M1970 3879 c-76 -15 -187 -76 -249 -138 -125 -126 -176 -300 -136
-470 74 -314 417 -475 713 -336 194 91 310 314 274 528 -48 285 -317 471 -602
416z"/>
<path d="M3520 3395 c-165 -46 -301 -200 -332 -375 l-11 -63 29 -20 c97 -67
185 -193 219 -312 10 -33 21 -70 26 -82 19 -51 219 -71 338 -34 124 39 219
122 278 246 108 227 8 502 -222 612 -69 32 -87 36 -173 40 -66 2 -115 -2 -152
-12z"/>
<path d="M1165 2926 c-277 -69 -428 -377 -311 -638 103 -234 387 -340 620
-233 48 22 49 24 71 98 26 92 73 171 144 245 52 55 54 59 52 109 -5 150 -101
301 -242 381 -88 49 -225 65 -334 38z"/>
<path d="M2745 2927 c-77 -26 -149 -69 -202 -123 -67 -67 -123 -178 -130 -261
l-5 -58 48 -39 c100 -80 179 -203 204 -316 17 -78 21 -83 81 -102 158 -49 363
5 473 126 92 100 131 212 124 352 -5 83 -10 103 -42 170 -50 100 -120 170
-219 219 -74 36 -84 39 -185 42 -70 2 -121 -2 -147 -10z"/>
<path d="M1772 2832 c-18 -4 -33 -10 -33 -15 1 -4 14 -33 30 -65 33 -65 61
-163 61 -212 0 -27 3 -31 18 -25 148 65 327 73 453 20 14 -5 19 5 29 65 7 44
27 102 50 148 22 42 36 79 34 82 -8 8 -604 9 -642 2z"/>
<path d="M1983 2445 c-122 -33 -238 -123 -295 -231 -136 -253 -18 -561 252
-661 220 -82 471 19 576 232 90 183 57 391 -84 533 -121 121 -291 169 -449
127z"/>
<path d="M3457 2444 c-2 -5 -8 -33 -12 -63 -15 -108 -53 -194 -128 -284 -21
-27 -38 -50 -36 -51 2 -2 29 -14 59 -27 155 -64 292 -193 364 -341 56 -115 76
-207 76 -350 l0 -111 93 8 c175 13 389 62 520 117 l47 20 0 278 c0 311 -9 374
-72 493 -71 133 -233 258 -379 291 -74 17 -523 33 -532 20z"/>
<path d="M1115 1970 c-170 -8 -208 -16 -320 -73 -78 -39 -200 -161 -243 -243
-61 -117 -66 -157 -67 -479 l0 -290 100 -28 c128 -36 301 -71 444 -91 177 -25
161 -34 161 89 0 237 78 421 240 568 51 46 191 129 250 149 11 3 4 16 -27 52
-56 64 -103 164 -122 263 l-16 83 -61 0 c-34 0 -88 2 -120 4 -32 2 -131 0
-219 -4z"/>
<path d="M2667 1890 c-19 -100 -60 -188 -120 -261 l-45 -57 46 -17 c138 -51
285 -173 360 -301 72 -121 102 -244 102 -413 l0 -94 88 6 c162 11 379 59 512
113 l55 22 3 274 c3 312 -2 357 -58 473 -67 138 -175 239 -325 301 l-70 29
-266 3 -266 3 -16 -81z"/>
<path d="M1775 1479 c-27 -6 -87 -28 -133 -49 -112 -53 -222 -160 -276 -270
-58 -119 -66 -177 -66 -487 l0 -272 38 -11 c432 -122 775 -153 1122 -104 126
18 265 53 363 93 l72 28 3 264 c2 213 0 278 -14 339 -44 208 -185 369 -392
448 -66 26 -71 26 -367 28 -167 2 -322 -2 -350 -7z"/>
</g>
</svg>
