<?xml version="1.0" standalone="no"?>
<!DOCTYPE svg PUBLIC "-//W3C//DTD SVG 20010904//EN"
 "http://www.w3.org/TR/2001/REC-SVG-20010904/DTD/svg10.dtd">
<svg version="1.0" xmlns="http://www.w3.org/2000/svg"
 width="548.000000pt" height="375.000000pt" viewBox="0 0 548.000000 375.000000"
 preserveAspectRatio="xMidYMid meet">

<g transform="translate(0.000000,375.000000) scale(0.100000,-0.100000)"
fill="#000000" stroke="none">
<path d="M1641 3599 c-118 -20 -230 -109 -272 -216 -21 -53 -23 -77 -27 -305
l-4 -248 -202 0 c-227 0 -289 -10 -362 -60 -54 -38 -90 -84 -115 -150 -18 -48
-19 -87 -19 -1060 0 -990 0 -1010 20 -1064 27 -72 88 -139 158 -173 l57 -28
645 0 645 0 57 28 c60 29 115 85 143 143 l16 34 620 0 620 0 24 25 c23 22 25
31 25 125 0 111 -13 155 -58 204 -50 53 -93 66 -234 66 l-128 0 0 145 0 145
279 0 280 0 3 -378 c2 -261 7 -385 15 -404 20 -46 82 -106 126 -123 37 -14 91
-16 407 -13 l365 3 41 27 c47 30 75 66 92 117 17 48 17 1344 1 1392 -19 56
-59 100 -113 125 -50 23 -58 24 -313 24 l-262 0 -4 668 c-4 728 -2 706 -64
799 -40 61 -95 104 -173 136 l-55 22 -1090 1 c-621 1 -1113 -2 -1144 -7z
m2220 -140 c74 -16 142 -84 158 -158 7 -35 11 -256 11 -686 0 -619 0 -635 -19
-635 -37 0 -107 -38 -140 -75 -40 -46 -48 -66 -57 -144 l-7 -61 -703 0 -703 0
-3 443 -3 442 -26 56 c-33 71 -87 125 -158 158 l-56 26 -337 3 -338 3 0 218
c0 270 9 307 88 375 51 44 61 45 1179 45 748 1 1077 -2 1114 -10z m-1706 -788
c22 -10 48 -27 57 -37 25 -28 48 -88 48 -124 l0 -30 -740 0 -740 0 0 35 c0 70
49 140 115 163 20 7 238 11 625 11 557 1 598 -1 635 -18z m105 -1111 l0 -780
-740 0 -740 0 0 780 0 780 740 0 740 0 0 -780z m2445 255 c19 -18 25 -35 25
-70 l0 -45 -390 0 -390 0 0 29 c0 39 17 83 37 99 13 9 100 12 355 12 l339 0
24 -25z m-893 -352 c2 -54 2 -101 0 -105 -2 -5 -320 -8 -708 -8 l-704 0 0 105
0 105 704 0 705 0 3 -97z m918 -328 l0 -425 -390 0 -390 0 0 425 0 425 390 0
390 0 0 -425z m-1620 -70 l0 -145 -355 0 -355 0 0 145 0 145 355 0 355 0 0
-145z m400 -305 c15 -15 20 -33 20 -70 l0 -50 -565 0 -565 0 0 70 0 70 545 0
c532 0 545 0 565 -20z m-1250 -155 c0 -69 -49 -140 -113 -164 -19 -7 -230 -11
-634 -11 l-606 0 -43 25 c-49 29 -84 91 -84 148 l0 37 740 0 740 0 0 -35z
m2470 -79 c0 -29 -7 -52 -21 -70 l-20 -26 -340 0 c-203 0 -348 4 -359 10 -21
11 -40 60 -40 101 l0 29 390 0 390 0 0 -44z"/>
</g>
</svg>
