<?xml version="1.0" standalone="no"?>
<!DOCTYPE svg PUBLIC "-//W3C//DTD SVG 20010904//EN"
 "http://www.w3.org/TR/2001/REC-SVG-20010904/DTD/svg10.dtd">
<svg version="1.0" xmlns="http://www.w3.org/2000/svg"
 width="374.000000pt" height="388.000000pt" viewBox="0 0 374.000000 388.000000"
 preserveAspectRatio="xMidYMid meet">

<g transform="translate(0.000000,388.000000) scale(0.100000,-0.100000)"
fill="#000000" stroke="none">
<path d="M1695 3553 c-566 -26 -997 -126 -1127 -260 l-33 -34 0 -334 0 -334
35 -36 c93 -97 379 -183 760 -230 181 -23 733 -32 952 -16 402 29 763 114 898
212 81 59 80 54 80 404 0 288 -1 312 -19 341 -68 111 -340 204 -743 254 -256
31 -569 44 -803 33z"/>
<path d="M551 2266 c-20 -32 -21 -47 -21 -347 0 -294 1 -316 20 -346 69 -114
389 -213 845 -263 163 -18 651 -24 851 -11 510 34 916 146 994 274 19 30 20
52 20 340 0 267 -2 314 -17 344 -9 19 -22 37 -28 39 -7 3 -34 -9 -61 -26 -72
-44 -219 -94 -384 -128 -692 -146 -1750 -84 -2127 123 -35 19 -65 35 -68 35
-2 0 -13 -15 -24 -34z"/>
<path d="M550 1238 c-19 -31 -20 -49 -20 -346 0 -349 -1 -346 69 -401 93 -74
352 -153 626 -191 383 -52 985 -52 1345 1 349 51 612 146 670 241 19 31 20 51
20 341 0 247 -3 315 -15 342 -19 47 -37 52 -82 21 -121 -83 -447 -161 -828
-198 -172 -16 -724 -16 -885 0 -353 36 -623 97 -779 175 -47 23 -88 43 -93 45
-4 2 -17 -11 -28 -30z m2464 -332 c43 -18 66 -51 66 -97 0 -50 -39 -96 -87
-105 -123 -23 -174 152 -59 202 39 17 40 17 80 0z m-414 -113 c92 -54 57 -196
-49 -196 -50 0 -84 21 -101 63 -19 47 -3 99 39 127 40 27 73 29 111 6z"/>
</g>
</svg>
